# xmcd
#
# Track frame offsets:
#	150
#	17796
#	36061
#	50015
#	67217
#	84407
#	99589
#	117329
#	134471
#	153065
#	171440
#	187122
#	205905
#	225887
#
# Disc length: 3259 seconds
#
# Revision: 19
# Processed by: cddbd v1.5.2PL0 Copyright (c) Steve Scherf et al.
# Submitted via: EasyCDDAExtractor 15.3.0.1
#
DISCID=bd0cb90e
DTITLE=Laura Pausini - Entre Tu Y Mil Mares
DYEAR=2000
DGENRE=Latin
TTITLE0=Somos Hoy
TTITLE1=Quiero Decirte Que Te Amo
TTITLE2=Un Error De Los Grandes
TTITLE3=Entre Tu Y Mil Mares
TTITLE4=La Meta De Mi Viaje
TTITLE5=Musica Sera
TTITLE6=Si No Me Quieres Hoy
TTITLE7=Fiate De Mi
TTITLE8=Recuerdame
TTITLE9=Vivire
TTITLE10=Mientras La Noche Va
TTITLE11=Como Se Hara
TTITLE12=Jenny
TTITLE13=The Extra Mile
EXTD=
EXTT0=
EXTT1=
EXTT2=
EXTT3=
EXTT4=
EXTT5=
EXTT6=
EXTT7=
EXTT8=
EXTT9=
EXTT10=
EXTT11=
EXTT12=
EXTT13=
PLAYORDER=
